<?xml version="1.0" encoding="UTF-8"?>
<svg id="Layer_1" data-name="Layer 1" xmlns="http://www.w3.org/2000/svg" viewBox="0 0 1080 1080">
  <defs>
    <style>
      .cls-1 {
        fill: #dcb65a;
      }
    </style>
  </defs>
  <polygon class="cls-1" points="540.38 306.44 388.94 155 287.4 256.53 438.84 407.97 540.38 509.51 641.91 407.97 934.47 115.42 832.93 13.88 540.38 306.44"/>
  <polygon class="cls-1" points="774.42 540.49 925.86 389.04 824.33 287.51 672.89 438.95 571.35 540.48 672.89 642.02 965.44 934.58 1066.98 833.04 774.42 540.49"/>
  <polygon class="cls-1" points="539.62 773.56 691.06 925 792.6 823.47 641.16 672.03 539.62 570.49 438.09 672.03 145.53 964.58 247.07 1066.12 539.62 773.56"/>
  <polygon class="cls-1" points="305.58 539.51 154.14 690.96 255.67 792.49 407.11 641.05 508.65 539.52 407.11 437.98 114.56 145.42 13.02 246.96 305.58 539.51"/>
</svg>